PathFileType	4	(X/Y/Z)	Run_500 04
DataRate	CameraRate	NumFrames	NumMarkers	Units	OrigDataRate	OrigDataStartFrame	OrigNumFrames
100	100	7	41	mm	100	124	125
Frame#	Time	RASI			RPSI			RTH1			RTH2			RTH3			LTH1			LTH2			LTH3			RTB1			RTB2			RTB3			LTB1			LTB2			LTB3			RCAL			RTOE			RMT5			LCAL			LTOE			LACR			RACR			CLAV			C7			RUA1			RUA2			RUA3			RLEL			RMEL			LUA1			LUA2			LUA3			LLEL			LMEL			RFAsuperior			RFAradius			RFAulna			LFAsuperior			LFAradius			LFAulna			LPSI			LASI			
		X1	Y1	Z1	X2	Y2	Z2	X3	Y3	Z3	X4	Y4	Z4	X5	Y5	Z5	X6	Y6	Z6	X7	Y7	Z7	X8	Y8	Z8	X9	Y9	Z9	X10	Y10	Z10	X11	Y11	Z11	X12	Y12	Z12	X13	Y13	Z13	X14	Y14	Z14	X15	Y15	Z15	X16	Y16	Z16	X17	Y17	Z17	X18	Y18	Z18	X19	Y19	Z19	X20	Y20	Z20	X21	Y21	Z21	X22	Y22	Z22	X23	Y23	Z23	X24	Y24	Z24	X25	Y25	Z25	X26	Y26	Z26	X27	Y27	Z27	X28	Y28	Z28	X29	Y29	Z29	X30	Y30	Z30	X31	Y31	Z31	X32	Y32	Z32	X33	Y33	Z33	X34	Y34	Z34	X35	Y35	Z35	X36	Y36	Z36	X37	Y37	Z37	X38	Y38	Z38	X39	Y39	Z39	X40	Y40	Z40	X41	Y41	Z41	

117	1.42	1147.807193	1000.027082	-305.405249	984.325293	1051.846857	-390.766989	1150.773606	880.215465	-245.866871	1236.902837	841.693481	-267.452437	1283.765408	697.42332	-284.255393	1037.996005	828.897017	-605.25477	1032.381605	689.839859	-567.867711	902.797857	624.006735	-559.266191	1327.702049	467.126895	-354.365133	1234.908146	396.161866	-312.672349	1226.614045	318.895764	-372.52572	759.98006	373.006628	-476.007818	693.035907	350.387068	-518.990813	654.890754	280.955173	-460.959437	1072.001828	264.405754	-379.925524	1295.088324	184.927015	-373.176415	1282.052437	164.849591	-296.680517	497.763312	282.269234	-447.030607	607.250394	74.774073	-418.176974	1219.880775	1522.203323	-585.0222220000001	1116.04241	1508.280949	-252.803777	1203.458716	1449.581113	-367.958778	1103.16275	1538.716487	-431.584589	993.30961	1446.673333	-199.545728	941.480919	1469.552419	-243.274469	904.108393	1414.196996	-208.334813	829.9495460000001	1372.21799	-204.46924	832.466102	1366.779505	-298.879791	1191.149455	1413.691452	-658.206061	1112.596418	1360.236239	-675.29617	1161.656448	1295.875373	-698.856722	1154.254194	1226.515919	-720.000648	1100.611272	1205.07454	-646.799503	895.175125	1314.646504	-187.048498	1025.706629	1204.716306	-209.724477	970.82109	1162.764097	-194.384491	1230.579372	1239.512638	-674.653713	1321.947962	1307.632217	-543.188643	1357.574561	1245.124686	-552.046545	996.326154	1047.283808	-485.179234	1158.681543	964.1553720000001	-549.333916	
118	1.43	1150.008929	1002.153672	-307.746385	987.014272	1055.672805	-394.019378	1150.536848	883.627298	-246.944564	1236.261211	843.611531	-268.60644	1280.412128	696.902166	-286.775526	1039.597742	831.526618	-605.96648	1027.754551	692.9848950000001	-563.506828	895.434987	633.400523	-557.118475	1344.398217	464.977171	-355.392583	1261.761765	382.015395	-314.968513	1263.197892	305.624257	-376.652213	744.3009	386.69491	-474.52555	678.594655	364.85541	-519.734257	636.54863	296.046127	-462.302307	1117.114291	230.331257	-384.388394	1349.410693	183.160053	-380.678434	1339.409024	158.387127	-304.853378	486.707634	307.043167	-454.172112	567.7765460000001	86.388786	-416.596241	1219.594569	1528.318014	-581.327139	1116.374414	1510.681833	-252.274974	1203.520524	1452.629382	-365.929763	1102.836496	1540.677313	-430.379368	992.942551	1453.685174	-200.525669	942.674845	1477.636338	-245.422249	902.804972	1424.130876	-209.880123	826.809739	1383.626666	-207.500776	831.032095	1377.881604	-301.948667	1196.37282	1421.772097	-655.511897	1118.199526	1367.725415	-674.311119	1169.603779	1304.761614	-699.226064	1163.669982	1234.319933	-721.25235	1108.933557	1212.026095	-649.701177	891.699605	1326.906229	-189.075926	1023.264146	1216.817625	-209.116961	968.489812	1174.412053	-195.119864	1237.871974	1249.388174	-672.396731	1321.357842	1319.990977	-536.69277	1359.493897	1258.415288	-544.51472	1000.422924	1050.145289	-488.135107	1161.488064	964.970872	-550.021155	
119	1.44	1151.34972	1003.043055	-308.914717	988.755568	1058.449001	-396.50836	1149.042627	882.984841	-246.954121	1234.233875	841.3669599999999	-267.621351	1275.741284	693.22614	-287.80273	1041.936435	832.69981	-606.341223	1025.872764	695.167533	-559.177742	892.386288	639.4246869999999	-556.297871	1358.087347	460.629104	-355.916265	1286.890451	367.17518	-317.394731	1298.042284	292.968104	-380.747316	731.151207	398.021568	-472.451977	666.628753	377.401193	-519.886427	618.922897	311.826389	-462.511874	1163.092738	198.639705	-389.588678	1399.865114	184.100653	-387.993294	1393.066326	155.021595	-313.019341	473.729549	332.039493	-462.930536	531.58825	106.108769	-410.678709	1218.836539	1533.242188	-577.522847	1117.679356	1512.016231	-251.366893	1203.906224	1454.600765	-364.414987	1102.890154	1541.957768	-429.381051	993.689352	1458.532939	-200.822735	944.978083	1483.728301	-246.783718	902.877645	1432.28124	-210.763868	825.065118	1392.872811	-209.752445	830.824332	1387.096205	-304.36464	1201.129741	1428.04838	-653.558266	1123.066861	1374.046351	-673.919356	1176.421703	1312.321642	-700.082724	1171.716591	1240.975434	-723.0572100000001	1115.713326	1217.918492	-653.108581	889.672397	1337.020219	-190.642723	1022.266492	1226.569651	-208.401784	967.707174	1183.567442	-195.568566	1243.970586	1257.273649	-671.085828	1320.774934	1328.899078	-531.612155	1360.688609	1268.12503	-539.0444639999999	1003.412306	1052.343395	-490.736953	1163.367575	965.69338	-550.059574	
120	1.45	1151.557775	1003.420099	-308.858991	989.454775	1060.088985	-398.188115	1147.357383	879.286063	-246.509231	1231.961666	836.1204770000001	-265.436829	1270.387154	687.38151	-287.883567	1044.574136	832.529326	-606.140122	1026.886693	695.966281	-555.153825	893.796407	640.792951	-556.340991	1368.448654	454.10558	-356.419986	1309.767744	351.891957	-320.021938	1330.329991	281.03997	-384.47552	719.819717	407.05131	-470.215655	656.082859	388.352464	-519.581258	601.766948	328.720599	-461.999203	1208.446973	170.342808	-394.946439	1444.995738	187.751689	-394.910923	1442.263465	155.00486	-321.023548	457.872029	357.408795	-472.603653	500.164595	133.299703	-401.37914	1217.720769	1536.821681	-573.734368	1119.622617	1512.474888	-250.036085	1204.515627	1455.705033	-363.285352	1103.335336	1542.874722	-428.369873	995.207946	1460.935583	-200.185969	947.866617	1487.548768	-246.935019	904.2046329999999	1438.073891	-211.026259	824.847227	1399.476936	-211.200436	831.844615	1393.737215	-305.856065	1205.513751	1432.289472	-652.8033	1127.635682	1378.884472	-674.570443	1181.982624	1318.022973	-701.399919	1178.093409	1246.147012	-725.286244	1120.683337	1222.407056	-656.915498	889.225041	1344.333978	-191.768881	1022.984362	1233.581031	-207.444697	968.719239	1189.868627	-195.679365	1248.703075	1262.759456	-670.837744	1320.620835	1333.98712	-528.235062	1361.245396	1273.586667	-535.570977	1005.073486	1054.003095	-492.716425	1164.542353	966.539992	-549.333169	
121	1.46	1150.6947	1003.689157	-307.780635	989.2605	1060.41321	-399.265183	1146.025172	874.041229	-246.312332	1230.150171	828.945812	-263.611101	1264.030173	679.660446	-287.848603	1047.282522	831.666274	-605.414029	1030.270449	695.434653	-551.729358	898.7174	637.8839809999999	-556.2565520000001	1375.220581	445.950354	-357.408974	1329.752726	337.071767	-322.847885	1358.783932	270.450893	-387.868305	710.583435	414.438457	-468.623644	647.053348	398.609076	-519.394995	586.348472	346.465637	-461.69083	1251.019788	146.616152	-399.813011	1483.21782	194.101116	-401.350701	1485.507541	158.674025	-328.599373	442.203373	383.677919	-481.695057	473.650288	164.895458	-391.788314	1216.364706	1538.938733	-570.094983	1121.959829	1512.205611	-248.346871	1205.359969	1456.013047	-362.394608	1104.25344	1543.630613	-427.208073	997.2286769999999	1460.971121	-198.601616	950.7047700000001	1488.9594	-245.611053	906.402556	1440.860906	-210.587912	826.100134	1402.753484	-211.792392	833.968765	1396.975614	-306.154187	1209.282388	1434.666803	-653.118215	1131.699901	1382.161788	-676.180021	1186.000934	1321.64739	-703.068849	1182.425515	1249.714204	-727.795388	1123.67831	1225.246929	-661.065754	890.391643	1348.153123	-192.277314	1025.550351	1237.64212	-206.108827	971.640186	1193.186155	-195.357436	1251.90523	1265.630791	-671.672658	1321.161682	1335.048046	-526.578366	1361.276886	1274.362268	-533.933496	1005.518067	1055.08495	-493.894609	1165.415198	967.820173	-548.1157909999999	
122	1.47	1149.148003	1003.918741	-306.142292	988.45467	1059.286536	-399.992263	1145.042128	868.503908	-246.572963	1228.532462	820.329113	-263.061912	1255.72309	669.817497	-287.756798	1049.918922	830.670821	-604.558858	1035.09459	693.923352	-549.484855	905.4150990000001	632.571584	-555.558814	1378.50135	437.205063	-359.038536	1345.935341	324.080073	-325.663392	1381.852322	262.026866	-391.113472	704.3616510000001	420.71556	-468.408647	640.485171	409.082942	-519.918941	574.498028	364.30561	-462.424459	1288.136854	128.262773	-403.708624	1513.143897	202.175591	-407.293856	1520.71396	165.298236	-335.452613	431.375183	411.393337	-488.727248	451.138062	197.523772	-385.26649	1214.884067	1539.515011	-566.73821	1124.622179	1511.260256	-246.513046	1206.443277	1455.464452	-361.723606	1105.649493	1544.259569	-425.914942	999.7091840000001	1458.965189	-196.266105	953.182724	1487.973784	-242.874478	909.088587	1440.252524	-209.27757	828.646566	1402.13206	-211.397424	837.012849	1396.285188	-305.317194	1211.786934	1435.53351	-653.808619	1134.549459	1383.960485	-678.281036	1188.090802	1323.294522	-704.954891	1184.307911	1251.707244	-730.409404	1124.361178	1226.330662	-665.5426660000001	893.135057	1348.080217	-191.801542	1029.926975	1238.721666	-204.362252	976.458701	1193.545076	-194.430273	1253.399463	1265.787577	-673.46029	1322.346815	1331.96491	-526.342656	1360.805005	1270.381677	-534.018109	1005.088613	1055.273924	-494.433801	1166.311488	969.548717	-547.014275	
123	1.48	1147.386756	1004.009519	-304.586901	987.316238	1056.857899	-400.476454	1144.220427	863.104711	-246.912619	1226.319071	810.20744	-263.450109	1244.94385	657.936086	-286.791713	1052.366677	829.6552390000001	-604.052683	1040.419097	691.799659	-549.330997	912.345005	626.8987049999999	-554.811814	1378.821815	429.004264	-361.032336	1357.289515	313.945226	-328.119238	1398.238241	256.073502	-394.200479	701.91773	425.998095	-469.653455	637.361617	420.188946	-521.208926	567.434401	381.709118	-464.253523	1317.135119	114.902445	-406.472568	1533.967	209.90663	-412.720426	1546.292624	172.715192	-341.496446	428.193921	440.659418	-492.976402	432.147976	229.319984	-383.49481	1213.387101	1538.515352	-563.789624	1127.640481	1509.549211	-244.869692	1207.652375	1453.942093	-361.365225	1107.339612	1544.538317	-424.59884	1002.76962	1455.260363	-193.476978	955.422561	1484.692293	-239.075243	912.150837	1436.243757	-206.962988	832.345239	1397.478239	-209.7905	840.8051380000001	1391.709939	-303.586282	1212.356327	1435.101879	-654.180507	1135.469685	1384.391479	-680.296829	1187.942488	1323.2433	-706.91638	1183.459808	1252.229718	-732.938111	1122.267789	1225.84708	-670.065884	897.403311	1344.213008	-190.016052	1035.967682	1236.905497	-202.281217	983.094643	1191.030182	-192.666908	1252.993461	1263.22825	-675.981866	1323.867295	1324.767397	-527.236622	1359.658844	1261.901654	-535.801119	1004.158574	1054.195034	-494.704426	1167.329948	971.238818	-546.603086	
